<?xml version="1.0" encoding="utf-8"?>
<!-- Generator: Adobe Illustrator 23.0.1, SVG Export Plug-In . SVG Version: 6.00 Build 0)  -->
<svg version="1.1" id="Calque_1" xmlns="http://www.w3.org/2000/svg" xmlns:xlink="http://www.w3.org/1999/xlink" x="0px" y="0px"
	 viewBox="0 0 1932.64 296.87" style="enable-background:new 0 0 1932.64 296.87;" xml:space="preserve">
<style type="text/css">
	.st0{fill:#FF6F61;}
</style>
<g>
	<path class="st0" d="M3.26,166.27c0-11.31,2.09-22.57,6.52-32.98c1.21-2.84,2.59-5.62,4.24-8.3C30.62,98.09,54.69,84,86.21,82.89
		c11.15-0.39,22.33-0.07,33.49-0.07c1.62,0,3.24,0,5.2,0c-2.54-6.51-5.11-12.44-7.17-18.54c-3.56-10.56-4.9-21.34-2.52-32.44
		c4.45-20.75,33.62-36.96,55.48-22.18c9.13,6.18,16.02,14.47,22.6,23.11c8.17,10.73,15.7,21.96,25.24,31.6
		c12.31,12.43,26.75,19.5,44.66,18.53c5.98-0.33,12-0.05,17.99-0.05c18.78,0.01,28.81,9.96,28.82,28.6
		c0.01,37.33,0.06,74.66-0.09,111.98c-0.02,4.08,0.89,5.8,5.27,6.37c8.46,1.12,16.54,3.77,23.73,8.62c13.34,9,16.18,23,7.33,36.46
		c-3.42,5.2-7.73,9.61-12.83,13.18c-13.82,9.69-28.34,6.63-37.17-7.78c-4.15-6.77-6.98-14.18-7.74-21.96
		c-0.59-5.98-3.09-6.91-8.45-6.9c-62.99,0.17-125.99-0.46-188.97,0.27c-46.03,0.54-80.48-31.49-86.96-68.96c0,0,0-0.01,0-0.01
		c-0.33-1.73-0.84-3.41-0.84-5.17L3.26,166.27z M182.21,226.56c0,0.01,0,0.02,0,0.03c32.66,0,65.31-0.01,97.97,0.02
		c2.79,0,5.02,0.34,5-3.9c-0.15-36.99-0.11-73.98-0.02-110.97c0.01-2.26-1.84-4.07-4.1-4.02c-6.97,0.16-13.95-0.07-20.92,0.06
		c-18.99,0.37-35.52-6.06-50.19-17.83c-13.42-10.77-23.46-24.48-33.58-38.14c-5.16-6.96-10.23-14.01-16.99-19.58
		c-4.13-3.41-8.67-3.87-13.53-1.57c-4.75,2.24-6.94,5.99-6.83,11.18c0.06,3,0.18,5.95,0.86,8.92c2.27,9.85,6.77,18.71,11.4,27.59
		c2.17,4.15,4.92,6.41,9.69,7.22c7.67,1.31,11.72,7.75,10.23,15.02c-1.31,6.42-7.59,10.15-14.91,9.22
		c-26.04-3.29-52.28-3.59-78.26-0.93c-28.49,2.91-51.52,28.35-50.4,59.93c1.2,33.75,27.18,57.69,61.1,57.73
		C119.9,226.59,151.06,226.56,182.21,226.56z M311.22,250.98c-1.7-0.39-2.11,0.61-1.86,1.96c1.1,5.91,2.5,11.73,5.88,16.84
		c0.87,1.32,2.09,2.51,3.73,1.6c4.46-2.49,8.02-5.95,10.16-10.65c0.74-1.61-0.28-2.9-1.6-3.81
		C322.61,253.55,316.98,252.09,311.22,250.98z"/>
	<path class="st0" d="M1128.41,91.22c40.22-29.15,70.6-26.11,105.6,10.42c4.13-5.03,8.4-9.91,13.62-13.81
		c23.06-17.21,48.27-21.39,74.88-10.37c26.34,10.9,41.63,31.16,45.86,59.57c1.11,7.48,0.67,14.97,0.69,22.45
		c0.08,26.33,0.04,52.66,0.02,78.99c-0.01,10.2-3.95,13.76-15.11,13.73c-10.6-0.02-14.49-3.72-14.49-13.87
		c-0.01-30.66,0.09-61.33-0.03-91.99c-0.08-22.03-15.09-40.15-36.53-44.5c-20.84-4.23-41.97,6.9-50.74,26.74
		c-2.81,6.36-3.78,13.09-3.79,19.97c-0.03,30-0.07,59.99,0.04,89.99c0.02,5.37-0.67,10.53-6.26,12.35
		c-6.53,2.12-13.47,2.89-19.54-1.72c-3.03-2.3-3.48-5.79-3.47-9.46c0.06-30.83,0.07-61.66,0.02-92.49
		c-0.04-23.77-17.74-43.83-40.3-45.8c-25.11-2.19-45.93,13.38-50.28,37.74c-0.52,2.92-0.45,5.97-0.46,8.97
		c-0.04,30.16-0.02,60.33-0.04,90.49c-0.01,9.44-3.87,13.38-13.28,13.5c-3.48,0.04-7.03,0.38-10.29-1.34
		c-4.72-2.49-6.06-6.68-6.05-11.7c0.06-29.16,0.04-58.33,0.04-87.49c0-21-0.03-42,0.03-62.99c0.03-9.2,3.93-12.98,13.14-13.02
		C1125.08,75.52,1127.31,77.56,1128.41,91.22z"/>
	<path class="st0" d="M518.34,91.34c6-5.03,11.44-9.07,17.37-12.42c25.71-14.55,58.52-6.23,78.57,12.43
		c3.36,3.13,6.44,6.57,9.65,9.86c3.07-3.27,5.89-6.83,9.25-9.77c22.12-19.35,47.5-25.25,75.29-15.63c27.8,9.62,44.07,30,49.54,58.86
		c0.8,4.22,0.93,8.62,0.95,12.93c0.08,30.16,0.05,60.32,0.04,90.48c0,10.18-3.59,13.69-13.9,13.7c-1.17,0-2.33,0.01-3.5,0
		c-8.21-0.1-12.17-4.06-12.18-12.37c-0.03-30.49,0.01-60.99-0.02-91.48c-0.02-25.2-15.8-43.22-40.82-46.72
		c-22.36-3.12-45.65,14.1-49.34,36.48c-0.62,3.79-0.94,7.58-0.94,11.43c0.05,29.83,0.03,59.65,0.02,89.48
		c0,9.74-3.44,13.14-13.24,13.17c-1.33,0-2.67,0.01-4,0c-8.21-0.09-11.92-3.73-11.92-11.91c-0.03-30.83,0.03-61.65-0.03-92.48
		c-0.03-13.87-4.82-25.86-15.45-34.95c-14.3-12.22-30.63-15.22-47.96-7.78c-17.28,7.42-27.14,21.03-27.48,39.98
		c-0.54,30.15-0.17,60.32-0.18,90.47c0,14.35-2.45,16.75-16.97,16.64c-2.15-0.02-4.31,0.14-6.35-0.92
		c-4.5-2.34-6.29-6.13-6.29-11.04c0.02-50.65-0.01-101.31,0.03-151.96c0.01-8.26,4.1-12.23,12.29-12.31c1.83-0.02,3.67-0.03,5.5,0
		c7.29,0.13,11.27,4,11.76,11.38C518.09,88.02,518.18,89.17,518.34,91.34z"/>
	<path class="st0" d="M930.42,228.16c-6.69,6.03-12.63,11.29-19.42,15.44c-35.28,21.62-82.82,13.16-109.55-19.5
		c-28.18-34.43-26.97-90.37,2.23-123.73c26.49-30.27,82.04-43.39,121.61-6c1.4,1.33,2.86,2.6,5.1,4.63c0-4.55-0.07-8.13,0.01-11.71
		c0.18-7.48,4.41-11.59,11.93-11.7c2-0.03,4-0.03,6,0c6.78,0.13,10.88,3.86,11.6,10.54c0.07,0.66,0.05,1.33,0.05,2
		c-0.01,50.47,0,100.95-0.05,151.42c-0.01,8.3-4.03,12.16-12.32,12.25c-2,0.02-4,0.05-6-0.01c-6.67-0.2-10.87-4.21-11.17-10.89
		C930.27,237,930.42,233.07,930.42,228.16z M930.47,163.96c-0.15-4.22-0.34-8.34-0.99-12.49c-7.87-50.42-61.72-61.97-93.05-40.68
		c-21.91,14.89-28.12,36.97-25.35,62.16c5.15,46.8,50.83,63.6,85.71,47.66C920.69,209.68,929.62,189,930.47,163.96z"/>
	<path class="st0" d="M1750.37,171.01c-1.03,29.47-14.84,59.12-49.01,75.71c-49.59,24.07-119.34,1.58-128.74-69.52
		c-3.69-27.86,2.28-53.85,21.06-75.62c19.75-22.89,45.6-31.69,75.14-29.5c28.01,2.08,50.59,14.64,66.35,38.24
		C1745.93,126.43,1750.45,144.5,1750.37,171.01z M1601.08,163.94c-0.02,4.55,0.27,9.02,1.16,13.45
		c4.57,22.91,17.01,39.44,39.81,46.18c23.41,6.91,45.17,3.06,62.54-15.04c14.57-15.18,18.37-34.15,15.84-54.65
		c-6.23-50.4-57.75-63.79-90.61-44.64C1609.06,121.36,1601.56,140.95,1601.08,163.94z"/>
	<path class="st0" d="M1921.54,140.61c0,34.33,0,68.67,0.01,103c-3.64,8.78-18.67,12.23-25.69,5.85c-2.92-2.66-3.64-6.12-3.63-9.97
		c0.07-30.82,0.1-61.65,0.03-92.47c-0.05-21.95-14.3-39.75-35.62-44.75c-27.65-6.48-55.15,14.88-55.35,43.3
		c-0.22,30.99-0.11,61.98-0.02,92.97c0.01,5.36-0.79,10.54-6.26,12.42c-6.5,2.23-13.43,2.95-19.54-1.59
		c-3.28-2.44-3.5-6.15-3.5-9.94c0.04-43.82,0.03-87.64,0.03-131.46c0-7-0.08-14,0.03-20.99c0.11-7.07,4.17-11.11,11.15-11.31
		c1.83-0.05,3.67-0.02,5.5-0.01c8.27,0.08,12.27,3.98,12.52,12.15c0.03,1.09,0.1,2.18,0.18,3.91c3.25-2.57,5.92-4.76,8.66-6.83
		c29.95-22.61,65.85-13.24,87.8,7.02C1912.03,105,1919.65,121.45,1921.54,140.61z"/>
	<path class="st0" d="M1468.04,159.68c0-17.83-0.11-35.66,0.09-53.49c0.04-3.77-1.01-5.03-4.77-4.72
		c-3.81,0.32-7.66,0.18-11.49,0.04c-7.18-0.27-10.82-4.81-10.78-13.25c0.04-7.93,3.84-12.33,10.97-12.56
		c3.66-0.12,7.35-0.25,10.99,0.04c3.82,0.31,5.2-0.79,5.1-4.89c-0.28-11.66-0.13-23.33-0.08-34.99c0.03-8.32,3.93-12.16,12.23-12.24
		c1.5-0.01,3-0.01,4.5,0c8.43,0.07,12.4,4.1,12.42,12.68c0.03,11.66,0.14,23.33-0.08,34.99c-0.06,3.5,0.93,4.53,4.45,4.47
		c12.16-0.21,24.33-0.1,36.49-0.07c8.74,0.02,12.97,4.2,13.01,12.74c0.03,8.92-4.12,13.09-13.12,13.11c-12,0.02-24,0.13-35.99-0.07
		c-3.53-0.06-4.88,0.6-4.86,4.57c0.17,33.99,0.07,67.99,0.11,101.98c0.01,10.4,7.3,18.15,17.09,18.42
		c9.54,0.26,17.33-7.57,17.79-17.87c0.46-10.44,3.3-13.17,13.68-13.18c1.83,0,3.67-0.06,5.5,0.05c5.59,0.36,9.53,4.32,9.96,9.93
		c1.91,24.68-16.42,46.96-41.16,50.04c-24.88,3.1-47.39-13.45-51.47-38.28c-0.96-5.86-0.53-11.97-0.56-17.96
		C1467.99,186.01,1468.04,172.85,1468.04,159.68z"/>
	<path class="st0" d="M1014.11,97.22c9.49-7.67,18.74-13.42,29.27-16.94c6.83-2.28,13.83-3.67,20.96-4.41
		c7.74-0.81,12.74,3.82,12.89,11.62c0.04,2,0.04,4,0,6c-0.16,6.93-3.56,11.21-10.34,11.84c-31.91,2.92-52.6,29.18-52.73,60.49
		c-0.1,24.33-0.03,48.66-0.06,72.99c-0.01,9.29-4.06,13.3-13.45,13.34c-3.65,0.02-7.41,0.41-10.71-1.64
		c-3.7-2.3-5.37-5.78-5.37-10.1c0-50.99-0.03-101.99,0.03-152.98c0.01-7.59,4.36-11.73,11.81-11.83c2.17-0.03,4.33-0.05,6.5,0.01
		c6.59,0.18,10.85,4.3,11.18,10.93C1014.24,89.69,1014.11,92.85,1014.11,97.22z"/>
	<path class="st0" d="M1421.12,163.57c0,25.15,0.01,50.3-0.01,75.46c-0.01,9.07-4.03,13.13-13.02,13.25c-1,0.01-2,0.01-3,0
		c-9.37-0.06-13.48-4.09-13.5-13.34c-0.03-12.16,0-24.32,0-36.48c0.01-37.48,0.04-74.96,0-112.44c-0.01-5.41,0.41-10.89,6.13-13.05
		c6.14-2.32,12.77-2.76,18.76,0.73c3.98,2.32,4.71,6.5,4.69,10.91c-0.06,24.99-0.03,49.97-0.03,74.96
		C1421.14,163.57,1421.13,163.57,1421.12,163.57z"/>
	<path class="st0" d="M1406.13,9.87c14.59-0.07,24.37,10.43,22.15,23.8c-1.52,9.18-9.37,15.52-20.49,16.55
		c-15.92,1.47-28.15-12.38-23.37-26.48C1387.24,15.42,1395.85,9.92,1406.13,9.87z"/>
	<path class="st0" d="M266.26,167.65c0,10.99,0.04,21.98-0.02,32.96c-0.04,6.99-4.47,11.89-10.66,11.98
		c-6.48,0.09-11.18-4.81-11.2-12.04c-0.06-22.14-0.06-44.28,0-66.43c0.02-7.3,4.55-12.26,10.99-12.32
		c6.28-0.06,10.85,5.08,10.87,12.38C266.3,145.35,266.26,156.5,266.26,167.65z"/>
</g>
</svg>
